<svg width="386" height="296" viewBox="0 0 386 296" fill="none" xmlns="http://www.w3.org/2000/svg">
<rect x="56" y="51" width="274" height="194" rx="30" stroke="black" stroke-width="20"/>
<rect x="10" y="10" width="366" height="276" rx="30" stroke="black" stroke-width="20"/>
<path d="M193 71C224.117 71 253.451 90.4908 275.929 111.763C286.978 122.219 295.952 132.71 302.165 140.596C304.423 143.462 306.308 145.973 307.787 148C306.308 150.027 304.424 152.539 302.165 155.405C295.952 163.291 286.978 173.781 275.929 184.237C253.451 205.509 224.117 225 193 225C161.883 225 132.549 205.509 110.071 184.237C99.0221 173.781 90.0481 163.291 83.835 155.405C81.5763 152.539 79.6909 150.027 78.2119 148C79.6909 145.973 81.5764 143.462 83.835 140.596C90.0481 132.71 99.022 122.219 110.071 111.763C132.549 90.4908 161.883 71 193 71Z" stroke="black" stroke-width="20"/>
<ellipse cx="193" cy="147.5" rx="47" ry="46.5" fill="black"/>
</svg>
